# xmcd
#
# Track frame offsets:
#	150
#	64554
#	95171
#	121624
#	150078
#
# Disc length: 2477 seconds
#
# Revision: 8
# Processed by: cddbd v1.5.2PL0 Copyright (c) Steve Scherf et al.
# Submitted via: Jack! The Knife 20 Magnifico
#
DISCID=2e09ab05
DTITLE=Dire Straits - Love Over Gold
DYEAR=1982
DGENRE=Rock
TTITLE0=Telegraph Road
TTITLE1=Private Investigations
TTITLE2=Industrial Disease
TTITLE3=Love Over Gold
TTITLE4=It Never Rains
EXTD=Mark Knofler
EXTT0=Mark Knofler
EXTT1=Mark Knofler
EXTT2=Mark Knofler
EXTT3=Mark Knofler
EXTT4=Mark Knofler
PLAYORDER=
